<svg xmlns="http://www.w3.org/2000/svg" viewBox="0 0 820 146" role="img" aria-labelledby="title description">
  <title id="title">Molevren header lockup for dark navigation</title>
  <desc id="description">Molevren symbol and custom light wordmark without micro-sized supporting text.</desc>
  <g transform="translate(12 10) scale(.98)">
    <g fill="none" stroke="#FF8A00" stroke-linecap="round" stroke-linejoin="round">
      <path d="M64 21 102 43v42l-38 22-38-22V43Z" stroke-width="5"/>
      <path d="m64 35 18 11-18 11-18-11Z" stroke-width="4"/>
      <path d="m70 20 10-9" stroke-width="3.5"/>
    </g>
    <path d="m38 52 26 14 26-14v35L64 102 38 87Z" fill="#2D5BE3"/>
    <path d="M47 87V65l17 12 17-12v22h-9V80l-8 6-8-6v7Z" fill="#FFFDF7"/>
    <g fill="#0B1324" stroke="#FF8A00" stroke-width="4">
      <circle cx="64" cy="21" r="6"/><circle cx="102" cy="43" r="6"/>
      <circle cx="102" cy="85" r="6"/><circle cx="64" cy="107" r="6"/>
      <circle cx="26" cy="85" r="6"/><circle cx="26" cy="43" r="6"/>
    </g>
    <circle cx="82" cy="9" r="4.5" fill="#FF8A00"/>
  </g>
  <path d="M143 14v118" stroke="#A5ADB8" stroke-opacity=".55" stroke-width="1.5"/>
  <g transform="translate(168 24) scale(1.02)" fill="none" stroke="#FFFDF7" stroke-width="6" stroke-linecap="square" stroke-linejoin="miter">
    <path d="M12 80V16l30 39 30-39v64"/>
    <path d="M120 16c-18 0-27 13-27 32s9 32 27 32 27-13 27-32-9-32-27-32Z"/>
    <path d="M170 16v64h45"/>
    <path d="M282 16h-50v64h50M232 47h39"/>
    <path d="m302 16 27 64 27-64"/>
    <path d="M379 80V16h29c17 0 26 9 26 22s-9 22-26 22h-29m29 0 30 20"/>
    <path d="M508 16h-50v64h50M458 47h39"/>
    <path d="M531 80V16l58 64V16"/>
    <path d="m340 35 16-19" stroke="#FF8A00" stroke-width="7"/>
  </g>
</svg>
