<svg xmlns="http://www.w3.org/2000/svg" viewBox="0 0 128 128" role="img" aria-labelledby="title description">
  <title id="title">Molevren symbol</title>
  <desc id="description">An abstract six-node structure surrounding a geometric M, representing connection, motion and learning.</desc>
  <g fill="none" stroke="#FF8A00" stroke-linecap="round" stroke-linejoin="round">
    <path d="M64 21 102 43v42l-38 22-38-22V43Z" stroke-width="5"/>
    <path d="m64 35 18 11-18 11-18-11Z" stroke-width="4"/>
    <path d="m70 20 10-9" stroke-width="3.5"/>
  </g>
  <path d="m38 52 26 14 26-14v35L64 102 38 87Z" fill="#0A3D91"/>
  <path d="M47 87V65l17 12 17-12v22h-9V80l-8 6-8-6v7Z" fill="#FFFDF7"/>
  <g fill="#FFFDF7" stroke="#FF8A00" stroke-width="4">
    <circle cx="64" cy="21" r="6"/><circle cx="102" cy="43" r="6"/>
    <circle cx="102" cy="85" r="6"/><circle cx="64" cy="107" r="6"/>
    <circle cx="26" cy="85" r="6"/><circle cx="26" cy="43" r="6"/>
  </g>
  <circle cx="82" cy="9" r="4.5" fill="#FF8A00"/>
</svg>
